<svg width="41" height="41" xmlns="http://www.w3.org/2000/svg" xmlns:xlink="http://www.w3.org/1999/xlink" xml:space="preserve" overflow="hidden"><g transform="translate(-151 -144)"><path d="M151.5 150.298C151.5 147.096 154.096 144.5 157.298 144.5L185.702 144.5C188.904 144.5 191.5 147.096 191.5 150.298L191.5 178.702C191.5 181.904 188.904 184.5 185.702 184.5L157.298 184.5C154.096 184.5 151.5 181.904 151.5 178.702Z" stroke="#000000" stroke-width="1.14583" stroke-miterlimit="8" fill="#FFFFFF" fill-rule="evenodd"/><g><g><g><path d="M174.25 156C173.628 156 173.125 156.503 173.125 157.125 173.125 157.747 173.628 158.25 174.25 158.25L177.158 158.25 170.081 165.33C169.641 165.77 169.641 166.484 170.081 166.923 170.52 167.362 171.234 167.362 171.673 166.923L178.75 159.843 178.75 162.75C178.75 163.372 179.253 163.875 179.875 163.875 180.497 163.875 181 163.372 181 162.75L181 157.125C181 156.503 180.497 156 179.875 156L174.25 156ZM165.812 157.125C164.259 157.125 163 158.384 163 159.938L163 171.187C163 172.741 164.259 174 165.812 174L177.063 174C178.617 174 179.875 172.741 179.875 171.187L179.875 167.25C179.875 166.628 179.372 166.125 178.75 166.125 178.128 166.125 177.625 166.628 177.625 167.25L177.625 171.187C177.625 171.497 177.372 171.75 177.063 171.75L165.812 171.75C165.503 171.75 165.25 171.497 165.25 171.187L165.25 159.938C165.25 159.628 165.503 159.375 165.812 159.375L169.75 159.375C170.372 159.375 170.875 158.872 170.875 158.25 170.875 157.628 170.372 157.125 169.75 157.125L165.812 157.125Z"/></g></g></g></g></svg>