<svg width="43" height="40" xmlns="http://www.w3.org/2000/svg" xmlns:xlink="http://www.w3.org/1999/xlink" xml:space="preserve" overflow="hidden"><defs><clipPath id="clip0"><rect x="148" y="145" width="43" height="40"/></clipPath></defs><g clip-path="url(#clip0)" transform="translate(-148 -145)"><g><path d="M30.6131 0C35.7888-2.21959e-15 39.9845 4.1957 39.9845 9.37137L39.9845 30.6131C39.9845 35.7888 35.7888 39.9845 30.6131 39.9845L9.37137 39.9845C4.1957 39.9845-1.10979e-15 35.7888-1.10979e-15 30.6131L-1.10979e-15 9.37137C-3.32938e-15 4.1957 4.1957-2.21959e-15 9.37137-2.21959e-15Z" fill="#F4F2ED" transform="matrix(1 0 0 1.00038 148.104 145)"/><path d="M15.8742 28.5232C15.8742 28.5232 14.6747 29.2532 16.709 29.462 19.1655 29.775 20.4644 29.7227 23.1763 29.2015 23.1763 29.2015 23.9064 29.6715 24.8975 30.0362 18.7944 32.6439 11.0752 29.8797 15.8742 28.5232ZM15.0918 25.1331C15.0918 25.1331 13.7877 26.1242 15.8218 26.3324 18.4814 26.5931 20.5686 26.6455 24.1675 25.9159 24.1675 25.9159 24.6375 26.4377 25.4194 26.6984 18.0655 28.889 9.82393 26.9066 15.0918 25.1335L15.0918 25.1331ZM29.4878 31.0792C29.4878 31.0792 30.3743 31.8092 28.4966 32.3834 25.0017 33.4264 13.84 33.7399 10.7105 32.3834 9.61565 31.9134 11.7017 31.2351 12.3794 31.1315 13.0576 30.975 13.4224 30.975 13.4224 30.975 12.2229 30.1403 5.44202 32.6962 9.97987 33.4317 22.4458 35.4664 32.7215 32.5452 29.4873 31.0845L29.4878 31.0792ZM16.4478 21.5859C16.4478 21.5859 10.7623 22.9424 14.4131 23.4112 15.9779 23.6194 19.0551 23.5677 21.924 23.3589 24.2712 23.1506 26.6237 22.7331 26.6237 22.7331 26.6237 22.7331 25.7889 23.0982 25.2154 23.4631 19.4209 24.977 8.31095 24.2989 11.4928 22.734 14.2058 21.4298 16.4478 21.5859 16.4478 21.5859L16.4478 21.5859ZM26.6183 27.2713C32.4609 24.2459 29.7478 21.3252 27.8701 21.6905 27.4002 21.7947 27.192 21.8989 27.192 21.8989 27.192 21.8989 27.3483 21.5859 27.7136 21.4823 31.4167 20.1781 34.3381 25.3942 26.5143 27.4284 26.5143 27.4284 26.5666 27.3761 26.6183 27.2719L26.6183 27.2713ZM17.0214 35.5119C22.6547 35.8772 31.2609 35.3035 31.4697 32.6428 31.4697 32.6428 31.0531 33.6858 26.8277 34.4684 22.0293 35.3549 16.0825 35.2507 12.5882 34.6766 12.5882 34.6766 13.3182 35.3024 17.0218 35.5112L17.0214 35.5119Z" fill="#4E7896" transform="matrix(1 0 0 1.00038 148.104 145)"/><path d="M23.0668 4.3733C23.0668 4.3733 26.3006 7.65934 19.9896 12.6138 14.93 16.6298 18.8414 18.9252 19.9896 21.5324 17.0165 18.8728 14.8787 16.5252 16.3384 14.3345 18.4821 11.1024 24.3752 9.53762 23.0668 4.3733ZM21.398 19.3428C22.9103 21.064 20.9814 22.6289 20.9814 22.6289 20.9814 22.6289 24.841 20.6475 23.0679 18.1951 21.4507 15.8479 20.199 14.7003 26.9799 10.7878 26.9799 10.7878 16.287 13.4474 21.399 19.3417L21.398 19.3428Z" fill="#F58219" transform="matrix(1 0 0 1.00038 148.104 145)"/></g><rect x="153" y="149" width="28.9999" height="32.0003" fill="#F4F2ED"/><g><g><g><path d="M170.25 156C169.628 156 169.125 156.503 169.125 157.125 169.125 157.747 169.628 158.25 170.25 158.25L173.157 158.25 166.081 165.33C165.641 165.77 165.641 166.484 166.081 166.923 166.52 167.362 167.234 167.362 167.673 166.923L174.75 159.843 174.75 162.75C174.75 163.372 175.253 163.875 175.875 163.875 176.497 163.875 177 163.372 177 162.75L177 157.125C177 156.503 176.497 156 175.875 156L170.25 156ZM161.813 157.125C160.259 157.125 159 158.384 159 159.938L159 171.187C159 172.741 160.259 174 161.813 174L173.063 174C174.616 174 175.875 172.741 175.875 171.187L175.875 167.25C175.875 166.628 175.372 166.125 174.75 166.125 174.128 166.125 173.625 166.628 173.625 167.25L173.625 171.187C173.625 171.497 173.372 171.75 173.063 171.75L161.813 171.75C161.503 171.75 161.25 171.497 161.25 171.187L161.25 159.938C161.25 159.628 161.503 159.375 161.813 159.375L165.75 159.375C166.372 159.375 166.875 158.872 166.875 158.25 166.875 157.628 166.372 157.125 165.75 157.125L161.813 157.125Z"/></g></g></g></g></svg>