<svg width="180" height="165" xmlns="http://www.w3.org/2000/svg" xmlns:xlink="http://www.w3.org/1999/xlink" xml:space="preserve" overflow="hidden"><defs><clipPath id="clip0"><rect x="2805" y="1335" width="180" height="165"/></clipPath></defs><g clip-path="url(#clip0)" transform="translate(-2805 -1335)"><g><path d="M126.175 0C147.507-9.14824e-15 164.8 17.293 164.8 38.625L164.8 126.175C164.8 147.507 147.507 164.8 126.175 164.8L38.625 164.8C17.293 164.8-4.57412e-15 147.507-4.57412e-15 126.175L-4.57412e-15 38.625C-1.37224e-14 17.293 17.293-9.14824e-15 38.625-9.14824e-15Z" fill="#F4F2ED" transform="matrix(1 0 0 1.00121 2805.43 1335)"/><path d="M65.4269 117.561C65.4269 117.561 60.4834 120.57 68.8678 121.431 78.9927 122.721 84.3461 122.505 95.5235 120.357 95.5235 120.357 98.5324 122.294 102.618 123.797 77.4631 134.545 45.6476 123.152 65.4269 117.561ZM62.2025 103.588C62.2025 103.588 56.8272 107.674 65.2113 108.532 76.173 109.606 84.7755 109.822 99.6088 106.815 99.6088 106.815 101.546 108.966 104.768 110.04 74.4587 119.069 40.4903 110.898 62.2025 103.59L62.2025 103.588ZM121.537 128.096C121.537 128.096 125.191 131.105 117.452 133.471 103.047 137.77 57.043 139.062 44.1442 133.471 39.6318 131.534 48.2296 128.738 51.0228 128.312 53.8183 127.667 55.3217 127.667 55.3217 127.667 50.3779 124.226 22.4298 134.761 41.133 137.792 92.5127 146.178 134.865 134.138 121.535 128.118L121.537 128.096ZM67.7914 88.9682C67.7914 88.9682 44.3577 94.5592 59.4048 96.4917 65.8544 97.3498 78.5375 97.1368 90.3619 96.2761 100.036 95.4173 109.732 93.6966 109.732 93.6966 109.732 93.6966 106.292 95.2017 103.928 96.7055 80.0452 102.945 34.2544 100.15 47.3689 93.7004 58.5508 88.3251 67.7914 88.9682 67.7914 88.9682L67.7914 88.9682ZM109.71 112.401C133.791 99.9319 122.609 87.8938 114.87 89.3995 112.932 89.8289 112.074 90.2583 112.074 90.2583 112.074 90.2583 112.719 88.9682 114.224 88.5414 129.487 83.1661 141.528 104.665 109.281 113.049 109.281 113.049 109.497 112.833 109.71 112.404L109.71 112.401ZM70.1553 146.366C93.3734 147.871 128.845 145.507 129.705 134.541 129.705 134.541 127.988 138.84 110.573 142.065 90.7958 145.719 66.2857 145.289 51.8835 142.923 51.8835 142.923 54.8925 145.502 70.1572 146.363L70.1553 146.366Z" fill="#4E7896" transform="matrix(1 0 0 1.00121 2805.43 1335)"/><path d="M95.0723 18.025C95.0723 18.025 108.4 31.5687 82.3891 51.9889 61.5355 68.5414 77.6569 78.0019 82.3891 88.748 70.1353 77.7863 61.3242 68.1101 67.3401 59.081 76.1756 45.7596 100.465 39.3102 95.0723 18.025ZM88.1938 79.7233C94.4272 86.8174 86.4769 93.2672 86.4769 93.2672 86.4769 93.2672 102.385 85.1006 95.0768 74.993 88.4114 65.3188 83.2524 60.5887 111.2 44.4631 111.2 44.4631 67.1283 55.4248 88.1983 79.7188L88.1938 79.7233Z" fill="#F58219" transform="matrix(1 0 0 1.00121 2805.43 1335)"/></g><rect x="2834" y="1335" width="115" height="165" fill="#F4F2ED"/><g><g><g><path d="M2903.38 1370C2900.09 1370 2897.44 1372.65 2897.44 1375.94 2897.44 1379.22 2900.09 1381.87 2903.38 1381.87L2918.72 1381.87 2881.37 1419.24C2879.05 1421.56 2879.05 1425.33 2881.37 1427.65 2883.69 1429.97 2887.45 1429.97 2889.77 1427.65L2927.12 1390.28 2927.12 1405.62C2927.12 1408.91 2929.78 1411.56 2933.06 1411.56 2936.35 1411.56 2939 1408.91 2939 1405.62L2939 1375.94C2939 1372.65 2936.35 1370 2933.06 1370L2903.38 1370ZM2858.84 1375.94C2850.64 1375.94 2844 1382.58 2844 1390.78L2844 1450.16C2844 1458.36 2850.64 1465 2858.84 1465L2918.22 1465C2926.42 1465 2933.06 1458.36 2933.06 1450.16L2933.06 1429.38C2933.06 1426.09 2930.41 1423.44 2927.12 1423.44 2923.84 1423.44 2921.19 1426.09 2921.19 1429.38L2921.19 1450.16C2921.19 1451.79 2919.85 1453.13 2918.22 1453.13L2858.84 1453.13C2857.21 1453.13 2855.87 1451.79 2855.87 1450.16L2855.87 1390.78C2855.87 1389.15 2857.21 1387.81 2858.84 1387.81L2879.62 1387.81C2882.91 1387.81 2885.56 1385.16 2885.56 1381.87 2885.56 1378.59 2882.91 1375.94 2879.62 1375.94L2858.84 1375.94Z"/></g></g></g></g></svg>